<?xml version="1.0" encoding="UTF-8" standalone="no"?>
<!-- Created with Inkscape (http://www.inkscape.org/) -->

<svg
   width="128"
   height="128"
   viewBox="0 0 33.866666 33.866666"
   version="1.1"
   id="svg1"
   inkscape:version="1.4.2 (ebf0e940d0, 2025-05-08)"
   sodipodi:docname="logo.svg"
   inkscape:export-filename="src/main/resources/assets/debug-properties-plus/logo.png"
   inkscape:export-xdpi="96"
   inkscape:export-ydpi="96"
   xmlns:inkscape="http://www.inkscape.org/namespaces/inkscape"
   xmlns:sodipodi="http://sodipodi.sourceforge.net/DTD/sodipodi-0.dtd"
   xmlns:xlink="http://www.w3.org/1999/xlink"
   xmlns="http://www.w3.org/2000/svg"
   xmlns:svg="http://www.w3.org/2000/svg">
  <sodipodi:namedview
     id="namedview1"
     pagecolor="#505050"
     bordercolor="#eeeeee"
     borderopacity="1"
     inkscape:showpageshadow="0"
     inkscape:pageopacity="0"
     inkscape:pagecheckerboard="0"
     inkscape:deskcolor="#505050"
     inkscape:document-units="px"
     showguides="true"
     inkscape:zoom="5.2453422"
     inkscape:cx="16.872112"
     inkscape:cy="66.249253"
     inkscape:window-width="2560"
     inkscape:window-height="1420"
     inkscape:window-x="0"
     inkscape:window-y="0"
     inkscape:window-maximized="0"
     inkscape:current-layer="layer1" />
  <defs
     id="defs1">
    <linearGradient
       id="linearGradient1"
       inkscape:collect="always">
      <stop
         style="stop-color:#7716ff;stop-opacity:1;"
         offset="0"
         id="stop1" />
      <stop
         style="stop-color:#c13eff;stop-opacity:1;"
         offset="0.71244693"
         id="stop2" />
    </linearGradient>
    <linearGradient
       inkscape:collect="always"
       xlink:href="#linearGradient1"
       id="linearGradient2"
       x1="8.4355011"
       y1="31.387205"
       x2="25.205341"
       y2="3.4775043"
       gradientUnits="userSpaceOnUse" />
  </defs>
  <g
     inkscape:label="Layer 1"
     inkscape:groupmode="layer"
     id="layer1">
    <path
       id="path1"
       style="baseline-shift:baseline;display:inline;overflow:visible;fill:url(#linearGradient2);stroke-linecap:round;stroke-linejoin:round;paint-order:markers stroke fill;enable-background:accumulate;stop-color:#000000;stop-opacity:1;opacity:1;fill-opacity:1;stroke:#140030;stroke-opacity:1;stroke-width:0.52916666;stroke-dasharray:none"
       d="M 22.408968 1.95802 C 22.151084 2.092257 21.88288 2.2791382 21.603849 2.5181925 C 21.320062 2.7535799 21.054343 3.0294514 20.806482 3.3455322 C 20.355151 3.9210821 20.081066 4.4895625 19.98431 5.0508544 C 19.886497 5.6037618 19.952908 6.1317083 20.183781 6.6352538 C 20.414653 7.1387993 20.796319 7.5960509 21.32893 8.0067463 C 21.923363 8.4651117 22.495048 8.742974 23.044071 8.8408039 C 23.596794 8.9339161 24.111021 8.8723823 24.586096 8.6558022 C 25.06487 8.4345045 25.494381 8.0808003 25.875423 7.5948851 C 26.163978 7.2269106 26.411386 6.8534944 26.616979 6.4745401 C 26.826273 6.0908681 26.987556 5.7344956 27.100671 5.4053547 L 24.354069 3.2876546 L 22.645129 5.4673664 L 23.708113 6.2869546 L 24.412463 5.3883015 L 25.211381 6.0042845 C 25.177554 6.0766144 25.121651 6.1771335 25.043432 6.3060749 C 24.964157 6.4266317 24.892899 6.5271491 24.830008 6.6073485 C 24.541453 6.9753231 24.196039 7.1626446 23.793379 7.1701048 C 23.385964 7.1738981 22.944458 6.9926443 22.468912 6.625952 C 22.193096 6.4132705 21.972309 6.1788477 21.806937 5.9226358 C 21.645265 5.6617063 21.568024 5.386141 21.574393 5.0958129 C 21.580763 4.8054848 21.701949 4.5094228 21.938712 4.207495 C 22.112585 3.9857667 22.301122 3.7938073 22.504052 3.6323364 C 22.702227 3.4671985 22.917009 3.3300734 23.147941 3.2204752 L 22.408968 1.95802 z M 31.163472 5.5045735 A 1.7 1.7 0 0 0 30.941263 5.5154255 A 1.7 1.7 0 0 0 29.804899 6.1484618 L 11.826151 28.851468 L 10.109977 27.553873 L 10.255705 27.368355 C 10.677439 26.830546 10.946079 26.288205 11.061857 25.741581 C 11.177635 25.194956 11.123089 24.660977 10.898559 24.139611 C 10.677729 23.613528 10.272807 23.123082 9.6831297 22.668383 C 8.8937231 22.059674 8.117634 21.813361 7.3551065 21.92941 C 6.5925789 22.04546 5.8913602 22.511626 5.2513589 23.327775 L 4.9790242 23.67504 L 3.5274332 22.57795 A 1.7 1.7 0 0 0 1.1467 22.910229 A 1.7 1.7 0 0 0 1.4784627 25.290962 L 11.101648 32.56442 A 1.70017 1.70017 0 0 0 13.459127 32.263663 L 32.470886 8.2599608 A 1.7 1.7 0 0 0 32.193383 5.8730264 A 1.7 1.7 0 0 0 31.163472 5.5045735 z M 18.108455 6.9313597 L 17.037719 8.2971678 L 20.019449 10.596252 C 20.380865 10.874938 20.594714 11.142552 20.661271 11.39827 C 20.726771 11.645604 20.65061 11.907996 20.432344 12.186336 C 20.228876 12.445805 19.992313 12.581927 19.723344 12.594063 C 19.458074 12.601481 19.144764 12.465539 18.783349 12.186853 L 15.794901 9.8826007 L 14.717964 11.255127 L 17.813899 13.642578 C 18.474909 14.15228 19.128749 14.364836 19.77502 14.280265 C 20.420235 14.18731 21.016542 13.791466 21.564058 13.093257 C 22.13747 12.362026 22.376885 11.672359 22.28236 11.024133 C 22.18678 10.367522 21.817955 9.7916246 21.175968 9.29659 L 18.108455 6.9313597 z M 14.278715 12.85968 C 14.166358 12.866724 14.052345 12.888088 13.936617 12.923759 C 13.473703 13.066443 12.955601 13.503041 12.38219 14.234273 L 11.000362 15.996439 L 16.093074 19.923848 L 17.636132 17.956526 C 18.102261 17.362106 18.337246 16.790086 18.340999 16.240352 C 18.344751 15.690618 18.116016 15.237987 17.654736 14.882295 C 17.383675 14.673281 17.132212 14.555485 16.901294 14.528829 C 16.669319 14.493788 16.459484 14.513266 16.271358 14.58774 C 16.083232 14.662213 15.918936 14.755133 15.778365 14.866276 L 15.742708 14.838887 C 15.809304 14.685843 15.843412 14.515419 15.845544 14.327807 C 15.851376 14.135478 15.809772 13.940371 15.720487 13.74283 C 15.626447 13.541622 15.467537 13.355003 15.24403 13.182658 C 14.937303 12.946141 14.615785 12.838549 14.278715 12.85968 z M 14.070459 14.626497 C 14.164635 14.631842 14.256212 14.668847 14.345377 14.737601 C 14.47853 14.840275 14.555767 14.97557 14.576888 15.143261 C 14.601708 15.306235 14.525017 15.500759 14.347444 15.727205 L 14.0255 16.138033 L 13.112378 15.433683 L 13.412101 15.051794 C 13.643547 14.756648 13.86327 14.614739 14.070459 14.626497 z M 16.027445 16.061035 C 16.179276 16.062192 16.315536 16.109063 16.436206 16.202111 C 16.593136 16.32312 16.686694 16.471504 16.717326 16.646529 C 16.743202 16.817887 16.663552 17.021463 16.47858 17.257344 L 16.101342 17.738452 L 15.03164 16.913179 L 15.386657 16.460494 C 15.586427 16.205742 15.777935 16.073115 15.961299 16.063102 C 15.983625 16.061392 16.005755 16.06087 16.027445 16.061035 z M 10.306347 16.88114 L 7.9535195 19.881473 L 13.046749 23.808882 L 15.399577 20.808032 L 14.279748 19.944519 L 12.997656 21.579561 L 12.034924 20.836971 L 13.222448 19.322334 L 12.116573 18.469673 L 10.929048 19.98431 L 10.130131 19.368326 L 11.412223 17.733801 L 10.306347 16.88114 z M 7.3726764 23.603727 C 7.7473301 23.595489 8.1643441 23.768183 8.6232461 24.122041 C 9.1225695 24.507068 9.4176114 24.889856 9.5084634 25.270292 C 9.5993153 25.650727 9.4820966 26.04835 9.1565469 26.4635 L 8.9746458 26.695528 L 6.0998859 24.522534 L 6.3753213 24.171651 C 6.6657265 23.801317 6.9980228 23.611964 7.3726764 23.603727 z " />
  </g>
</svg>
